<?xml version="1.0" encoding="UTF-8"?>
<svg xmlns="http://www.w3.org/2000/svg" viewBox="0 0 200 350">
  <defs>
    <linearGradient id="mageHat" x1="0%" y1="0%" x2="100%" y2="100%">
      <stop offset="0%" style="stop-color:#3a4a7a"/>
      <stop offset="50%" style="stop-color:#2a3a6a"/>
      <stop offset="100%" style="stop-color:#1a2a5a"/>
    </linearGradient>
  </defs>
  <!-- Hat brim -->
  <ellipse cx="100" cy="25" rx="58" ry="15" fill="url(#mageHat)"/>
  <!-- Hat cone -->
  <path d="M 55 25 Q 52 10 70 -20 Q 90 -60 100 -80 Q 115 -50 120 -40 Q 145 5 145 25" fill="url(#mageHat)"/>
  <!-- Hat band -->
  <ellipse cx="100" cy="20" rx="48" ry="12" fill="#c0a060"/>
  <ellipse cx="100" cy="20" rx="44" ry="10" fill="url(#mageHat)"/>
  <!-- Star decoration -->
  <path d="M 100 -55 L 103 -48 L 110 -48 L 105 -43 L 107 -36 L 100 -40 L 93 -36 L 95 -43 L 90 -48 L 97 -48 Z" fill="#e0d0a0"/>
  <!-- Hat tip curl -->
  <path d="M 100 -80 Q 115 -85 120 -75" stroke="url(#mageHat)" stroke-width="8" fill="none" stroke-linecap="round"/>
</svg>
