<?xml version="1.0" encoding="UTF-8"?>
<svg xmlns="http://www.w3.org/2000/svg" viewBox="0 0 200 350">
  <defs>
    <linearGradient id="mageCloak" x1="0%" y1="0%" x2="100%" y2="100%">
      <stop offset="0%" style="stop-color:#3a4a6a"/>
      <stop offset="50%" style="stop-color:#2a3a5a"/>
      <stop offset="100%" style="stop-color:#1a2a4a"/>
    </linearGradient>
    <linearGradient id="silverTrim" x1="0%" y1="0%" x2="100%" y2="100%">
      <stop offset="0%" style="stop-color:#c0c0d0"/>
      <stop offset="100%" style="stop-color:#9090a0"/>
    </linearGradient>
  </defs>
  <!-- Inner tunic -->
  <path d="M 68 125 L 60 225 L 140 225 L 132 125 L 115 120 L 100 128 L 85 120 Z" fill="#1a1a2a"/>
  <!-- Outer cloak -->
  <path d="M 55 115 Q 30 130 25 180 L 20 280 L 50 280 L 55 180 Q 58 150 62 130" fill="url(#mageCloak)"/>
  <path d="M 145 115 Q 170 130 175 180 L 180 280 L 150 280 L 145 180 Q 142 150 138 130" fill="url(#mageCloak)"/>
  <!-- Cloak clasp area -->
  <path d="M 62 115 Q 100 125 138 115" stroke="url(#mageCloak)" stroke-width="20" fill="none"/>
  <!-- Silver clasp -->
  <circle cx="100" cy="120" r="8" fill="url(#silverTrim)"/>
  <circle cx="100" cy="120" r="4" fill="#4a5a8a"/>
  <!-- Mystical runes on cloak -->
  <path d="M 30 200 L 35 210 L 30 220 L 40 215 L 30 200" stroke="url(#silverTrim)" stroke-width="1.5" fill="none" opacity="0.6"/>
  <path d="M 165 200 L 170 210 L 165 220 L 175 215 L 165 200" stroke="url(#silverTrim)" stroke-width="1.5" fill="none" opacity="0.6"/>
  <circle cx="35" cy="250" r="5" stroke="url(#silverTrim)" stroke-width="1" fill="none" opacity="0.5"/>
  <circle cx="165" cy="250" r="5" stroke="url(#silverTrim)" stroke-width="1" fill="none" opacity="0.5"/>
</svg>
