<?xml version="1.0" encoding="UTF-8"?>
<svg xmlns="http://www.w3.org/2000/svg" viewBox="0 0 200 350">
  <defs>
    <linearGradient id="priestessRobe" x1="0%" y1="0%" x2="100%" y2="100%">
      <stop offset="0%" style="stop-color:#f8f0e0"/>
      <stop offset="50%" style="stop-color:#f0e8d8"/>
      <stop offset="100%" style="stop-color:#e8e0d0"/>
    </linearGradient>
    <linearGradient id="holyGold" x1="0%" y1="0%" x2="100%" y2="100%">
      <stop offset="0%" style="stop-color:#e0c060"/>
      <stop offset="100%" style="stop-color:#c0a040"/>
    </linearGradient>
  </defs>
  <!-- Main vestment -->
  <path d="M 62 125 Q 52 140 48 165 L 42 280 L 158 280 L 152 165 Q 148 140 138 125 L 118 120 Q 100 130 82 120 Z" fill="url(#priestessRobe)"/>
  <!-- Holy symbol on chest -->
  <circle cx="100" cy="155" r="12" fill="none" stroke="url(#holyGold)" stroke-width="2"/>
  <line x1="100" y1="143" x2="100" y2="167" stroke="url(#holyGold)" stroke-width="2"/>
  <line x1="88" y1="155" x2="112" y2="155" stroke="url(#holyGold)" stroke-width="2"/>
  <!-- Flowing sleeves -->
  <path d="M 48 140 Q 25 155 20 200 L 18 240 Q 15 255 30 255 L 45 245 Q 48 240 50 230 L 50 175 Q 50 155 52 145" fill="url(#priestessRobe)"/>
  <path d="M 152 140 Q 175 155 180 200 L 182 240 Q 185 255 170 255 L 155 245 Q 152 240 150 230 L 150 175 Q 150 155 148 145" fill="url(#priestessRobe)"/>
  <!-- Gold sash -->
  <path d="M 55 190 Q 100 200 145 190" stroke="url(#holyGold)" stroke-width="8" fill="none"/>
  <path d="M 95 195 L 90 230 Q 88 240 95 242 L 105 242 Q 112 240 110 230 L 105 195" fill="url(#holyGold)"/>
  <!-- Neckline -->
  <path d="M 82 120 Q 100 132 118 120" stroke="url(#holyGold)" stroke-width="3" fill="none"/>
</svg>
