<?xml version="1.0" encoding="UTF-8"?>
<svg xmlns="http://www.w3.org/2000/svg" viewBox="0 0 200 350">
  <defs>
    <linearGradient id="armoredGreaves" x1="0%" y1="0%" x2="100%" y2="100%">
      <stop offset="0%" style="stop-color:#8a8a9a"/>
      <stop offset="50%" style="stop-color:#6a6a7a"/>
      <stop offset="100%" style="stop-color:#4a4a5a"/>
    </linearGradient>
  </defs>
  <!-- Left greave -->
  <path d="M 55 290 L 50 340 Q 48 350 58 352 L 92 352 Q 100 350 98 340 L 95 290 Z" fill="url(#armoredGreaves)"/>
  <!-- Right greave -->
  <path d="M 105 290 L 102 340 Q 100 350 108 352 L 142 352 Q 150 350 148 340 L 145 290 Z" fill="url(#armoredGreaves)"/>
  <!-- Armor plating -->
  <path d="M 58 295 L 55 320 L 92 320 L 92 295" fill="#5a5a6a"/>
  <path d="M 108 295 L 105 320 L 142 320 L 142 295" fill="#5a5a6a"/>
  <!-- Gold accents -->
  <line x1="55" y1="320" x2="92" y2="320" stroke="#c0a060" stroke-width="3"/>
  <line x1="105" y1="320" x2="142" y2="320" stroke="#c0a060" stroke-width="3"/>
  <!-- Knee guards -->
  <ellipse cx="73" cy="295" rx="12" ry="8" fill="#8a8a9a"/>
  <ellipse cx="123" cy="295" rx="12" ry="8" fill="#8a8a9a"/>
  <circle cx="73" cy="295" r="4" fill="#c0a060"/>
  <circle cx="123" cy="295" r="4" fill="#c0a060"/>
</svg>
