<?xml version="1.0" encoding="UTF-8"?>
<svg xmlns="http://www.w3.org/2000/svg" viewBox="0 0 200 350">
  <defs>
    <linearGradient id="nobleBoots" x1="0%" y1="0%" x2="100%" y2="100%">
      <stop offset="0%" style="stop-color:#3a3a4a"/>
      <stop offset="50%" style="stop-color:#2a2a3a"/>
      <stop offset="100%" style="stop-color:#1a1a2a"/>
    </linearGradient>
  </defs>
  <!-- Left boot -->
  <path d="M 60 295 L 55 340 L 50 342 Q 48 350 55 352 L 90 352 Q 96 350 94 342 L 92 295 Z" fill="url(#nobleBoots)"/>
  <!-- Left heel -->
  <rect x="50" y="348" width="12" height="10" rx="2" fill="#1a1a2a"/>
  <!-- Right boot -->
  <path d="M 108 295 L 106 342 Q 104 350 110 352 L 145 352 Q 152 350 150 342 L 145 340 L 140 295 Z" fill="url(#nobleBoots)"/>
  <!-- Right heel -->
  <rect x="138" y="348" width="12" height="10" rx="2" fill="#1a1a2a"/>
  <!-- Decorative tops -->
  <path d="M 60 295 Q 76 290 92 295" stroke="#6a5a7a" stroke-width="4" fill="none"/>
  <path d="M 108 295 Q 124 290 140 295" stroke="#6a5a7a" stroke-width="4" fill="none"/>
  <!-- Gold trim -->
  <line x1="55" y1="320" x2="94" y2="320" stroke="#c0a060" stroke-width="2"/>
  <line x1="106" y1="320" x2="145" y2="320" stroke="#c0a060" stroke-width="2"/>
</svg>
