<?xml version="1.0" encoding="UTF-8"?>
<svg xmlns="http://www.w3.org/2000/svg" viewBox="0 0 200 350">
  <defs>
    <linearGradient id="darkHair" x1="0%" y1="0%" x2="100%" y2="100%">
      <stop offset="0%" style="stop-color:#3a3045"/>
      <stop offset="50%" style="stop-color:#2a2035"/>
      <stop offset="100%" style="stop-color:#1a1525"/>
    </linearGradient>
  </defs>
  <!-- Main hair volume -->
  <ellipse cx="100" cy="28" rx="50" ry="38" fill="url(#darkHair)"/>
  <!-- Long flowing hair -->
  <path d="M 50 35 Q 35 80 40 150 Q 42 200 50 250" stroke="url(#darkHair)" stroke-width="25" fill="none" stroke-linecap="round"/>
  <path d="M 150 35 Q 165 80 160 150 Q 158 200 150 250" stroke="url(#darkHair)" stroke-width="25" fill="none" stroke-linecap="round"/>
  <!-- Middle back hair -->
  <path d="M 70 50 Q 65 120 70 200 Q 72 230 75 260" stroke="url(#darkHair)" stroke-width="18" fill="none" stroke-linecap="round"/>
  <path d="M 130 50 Q 135 120 130 200 Q 128 230 125 260" stroke="url(#darkHair)" stroke-width="18" fill="none" stroke-linecap="round"/>
  <!-- Bangs -->
  <path d="M 60 32 Q 65 50 62 65" stroke="url(#darkHair)" stroke-width="14" fill="none" stroke-linecap="round"/>
  <path d="M 80 28 Q 78 48 75 60" stroke="url(#darkHair)" stroke-width="10" fill="none" stroke-linecap="round"/>
  <path d="M 120 28 Q 122 48 125 60" stroke="url(#darkHair)" stroke-width="10" fill="none" stroke-linecap="round"/>
  <path d="M 140 32 Q 135 50 138 65" stroke="url(#darkHair)" stroke-width="14" fill="none" stroke-linecap="round"/>
  <!-- Hair shine -->
  <path d="M 70 18 Q 100 12 130 18" stroke="#6a5a7a" stroke-width="3" fill="none" opacity="0.5"/>
</svg>
