<?xml version="1.0" encoding="UTF-8"?>
<svg xmlns="http://www.w3.org/2000/svg" viewBox="0 0 200 350">
  <defs>
    <linearGradient id="blondeHair" x1="0%" y1="0%" x2="100%" y2="100%">
      <stop offset="0%" style="stop-color:#f5e6c0"/>
      <stop offset="50%" style="stop-color:#e8d5a0"/>
      <stop offset="100%" style="stop-color:#d4c088"/>
    </linearGradient>
  </defs>
  <!-- Main hair volume -->
  <ellipse cx="100" cy="30" rx="48" ry="35" fill="url(#blondeHair)"/>
  <!-- Side hair flowing -->
  <path d="M 52 40 Q 45 60 48 90 Q 50 120 55 150 Q 52 160 50 170" stroke="url(#blondeHair)" stroke-width="20" fill="none" stroke-linecap="round"/>
  <path d="M 148 40 Q 155 60 152 90 Q 150 120 145 150 Q 148 160 150 170" stroke="url(#blondeHair)" stroke-width="20" fill="none" stroke-linecap="round"/>
  <!-- Bangs -->
  <path d="M 62 35 Q 70 55 68 65" stroke="url(#blondeHair)" stroke-width="12" fill="none" stroke-linecap="round"/>
  <path d="M 75 30 Q 80 52 76 62" stroke="url(#blondeHair)" stroke-width="10" fill="none" stroke-linecap="round"/>
  <path d="M 90 28 Q 88 48 85 58" stroke="url(#blondeHair)" stroke-width="8" fill="none" stroke-linecap="round"/>
  <path d="M 110 28 Q 112 48 115 58" stroke="url(#blondeHair)" stroke-width="8" fill="none" stroke-linecap="round"/>
  <path d="M 125 30 Q 120 52 124 62" stroke="url(#blondeHair)" stroke-width="10" fill="none" stroke-linecap="round"/>
  <path d="M 138 35 Q 130 55 132 65" stroke="url(#blondeHair)" stroke-width="12" fill="none" stroke-linecap="round"/>
  <!-- Hair shine -->
  <path d="M 75 20 Q 100 15 125 20" stroke="#fff" stroke-width="3" fill="none" opacity="0.4"/>
</svg>
